<?xml version="1.0" encoding="utf-8"?>
<!-- Generator: Adobe Illustrator 14.0.0, SVG Export Plug-In . SVG Version: 6.00 Build 43363)  -->
<!DOCTYPE svg PUBLIC "-//W3C//DTD SVG 1.1//EN" "http://www.w3.org/Graphics/SVG/1.1/DTD/svg11.dtd">
<svg version="1.1" id="Layer_1" xmlns="http://www.w3.org/2000/svg" xmlns:xlink="http://www.w3.org/1999/xlink" x="0px" y="0px"
	 width="30px" height="30px" viewBox="0 0 30 30" enable-background="new 0 0 30 30" xml:space="preserve">
<path fill="none" d="M0.833-0.5h29.583v30.834H0.833V-0.5z"/>
<path fill="none" stroke="#555555" stroke-width="1.5" stroke-miterlimit="10" d="M28.704,23.996L17.06,12.348
	c1.201-2.912,0.515-6.509-1.883-8.908c-2.568-2.57-6.508-3.083-9.59-1.712l5.48,5.481l-3.768,3.939l-5.65-5.653
	c-1.542,3.083-0.857,7.024,1.712,9.594c2.397,2.398,5.821,3.083,8.904,1.884L23.91,28.621c0.515,0.514,1.369,0.514,1.712,0
	l2.912-2.912C29.219,25.195,29.219,24.339,28.704,23.996z"/>
</svg>
