<?xml version="1.0" encoding="utf-8"?>
<!-- Generator: Adobe Illustrator 14.0.0, SVG Export Plug-In . SVG Version: 6.00 Build 43363)  -->
<!DOCTYPE svg PUBLIC "-//W3C//DTD SVG 1.1//EN" "http://www.w3.org/Graphics/SVG/1.1/DTD/svg11.dtd">
<svg version="1.1" id="Layer_1" xmlns="http://www.w3.org/2000/svg" xmlns:xlink="http://www.w3.org/1999/xlink" x="0px" y="0px"
	 width="30px" height="30px" viewBox="0 0 30 30" enable-background="new 0 0 30 30" xml:space="preserve">
<g>
	<rect x="-14.75" y="0.046" fill="none" width="29.606" height="29.954"/>
</g>
<g>
	<g>
		<path fill="none" stroke="#555555" stroke-width="1.5" stroke-miterlimit="10" d="M10.995,19.931
			c-3.468,0-10.407,2.091-10.407,6.27v3.134h20.814V26.2C21.402,22.021,14.465,19.931,10.995,19.931z"/>
		<path fill="none" stroke="#555555" stroke-width="1.5" stroke-miterlimit="10" d="M27.994,6.977c0-0.209,0-0.419,0-0.627
			c0-0.209,0-0.418,0-0.627l1.042-0.835c0.174,0,0.174-0.208,0-0.417l-0.867-1.881c0-0.209-0.175-0.209-0.346-0.209l-1.039,0.628
			c-0.178-0.209-0.523-0.418-0.697-0.628l-0.172-1.462c0-0.209-0.175-0.209-0.175-0.209h-1.907c-0.174,0-0.174,0-0.174,0.209
			l-0.174,1.462c-0.346,0.209-0.521,0.419-0.694,0.628l-1.212-0.628c-0.177,0-0.177,0-0.349,0.209l-1.04,2.09
			c0,0.208,0,0.208,0,0.418l1.04,0.835c0,0.209,0,0.418,0,0.626c0,0.209,0,0.419,0,0.628l-1.04,0.835c-0.173,0-0.173,0.209,0,0.418
			l0.867,1.88c0,0.208,0.173,0.208,0.345,0.208l1.217-0.626c0.172,0.209,0.521,0.418,0.691,0.626l0.175,1.255
			c0,0.208,0.174,0.208,0.174,0.208h1.907c0.174,0,0.174,0,0.174-0.208l0.175-1.463c0.346-0.209,0.521-0.418,0.691-0.627
			l1.217,0.627c0.171,0,0.171,0,0.346-0.209l0.867-1.88c0-0.209,0-0.209,0-0.418L27.994,6.977z M24.525,8.44
			c-0.866,0-1.561-0.836-1.561-1.882c0-1.045,0.694-1.879,1.561-1.879c0.868,0,1.562,0.834,1.562,1.879
			C26.087,7.604,25.394,8.44,24.525,8.44z"/>
		<path fill="none" stroke="#555555" stroke-width="1.5" stroke-miterlimit="10" d="M25.045,14.708l-0.691-1.463
			c0,0-0.175-0.208-0.175,0l-0.693,0.418c-0.175-0.209-0.346-0.209-0.521-0.418L22.791,12.2l-0.172-0.209H21.23
			c0,0-0.173,0-0.173,0.209l-0.174,1.045c-0.174,0-0.346,0.209-0.521,0.418l-0.867-0.418h-0.174l-0.694,1.463v0.209l0.694,0.627
			c0,0.209,0,0.209,0,0.417c0,0.209,0,0.209,0,0.418l-0.694,0.626v0.21l0.694,1.46c0,0,0.174,0.211,0.174,0l0.867-0.415
			c0.175,0.208,0.347,0.208,0.521,0.415l0.174,1.046c0,0.209,0,0.209,0.173,0.209h1.389c0,0,0.172,0,0.172-0.209l0.174-1.046
			c0.175,0,0.346-0.207,0.521-0.415l0.868,0.415h0.172l0.694-1.46v-0.21l-0.694-0.626c0-0.209,0-0.209,0-0.418
			c0-0.208,0-0.208,0-0.417l0.694-0.627C25.045,14.917,25.22,14.708,25.045,14.708z M21.923,17.216
			c-0.521,0-1.039-0.627-1.039-1.254s0.519-1.253,1.039-1.253c0.523,0,1.042,0.626,1.042,1.253S22.619,17.216,21.923,17.216z"/>
		<path fill="none" stroke="#555555" stroke-width="1.5" stroke-miterlimit="10" d="M5.445,10.528h11.102
			c0.348,0,0.693-0.417,0.693-0.835l0,0c-0.173-0.417-0.346-0.835-0.693-0.835H16.2c0-2.299-1.042-4.387-2.603-5.432v1.462
			c0,0.418-0.347,0.835-0.693,0.835S12.21,5.305,12.21,4.887V2.798c-0.347-0.209-0.866-0.209-1.215-0.209
			c-0.346,0-1.041,0-1.387,0.209v2.089c0,0.418-0.347,0.835-0.694,0.835s-0.52-0.417-0.52-0.835V3.425
			C6.832,4.47,5.792,6.558,5.792,8.857H5.445c-0.346,0-0.694,0.418-0.694,0.835l0,0C4.751,10.111,5.099,10.528,5.445,10.528z"/>
		<path fill="none" stroke="#555555" stroke-width="1.5" stroke-miterlimit="10" d="M10.995,16.797c2.43,0,4.512-2.089,5.031-4.806
			H5.964C6.485,14.708,8.568,16.797,10.995,16.797z"/>
	</g>
</g>
</svg>
