<?xml version="1.0" encoding="utf-8"?>
<!-- Generator: Adobe Illustrator 14.0.0, SVG Export Plug-In . SVG Version: 6.00 Build 43363)  -->
<!DOCTYPE svg PUBLIC "-//W3C//DTD SVG 1.1//EN" "http://www.w3.org/Graphics/SVG/1.1/DTD/svg11.dtd">
<svg version="1.1" id="Layer_1" xmlns="http://www.w3.org/2000/svg" xmlns:xlink="http://www.w3.org/1999/xlink" x="0px" y="0px"
	 width="30px" height="30px" viewBox="0 0 30 30" enable-background="new 0 0 30 30" xml:space="preserve">
<g>
	<rect x="-1.813" y="-2.906" fill="none" width="33.375" height="35.844"/>
</g>
<g>
	<g>
		<polygon fill="none" stroke="#555555" stroke-width="1.5" stroke-miterlimit="10" points="17.475,19.757 20.36,16.66 
			28.75,25.673 25.864,28.77 		"/>
		<path fill="none" stroke="#555555" stroke-width="1.5" stroke-miterlimit="10" d="M22.477,12.028c2.597,0,4.821-2.39,4.821-5.177
			c0-0.797-0.186-1.593-0.556-2.39l-3.709,3.983l-2.04-2.191l3.709-3.982c-0.74-0.398-1.483-0.597-2.226-0.597
			c-2.596,0-4.82,2.389-4.82,5.177c0,0.597,0.186,1.195,0.371,1.792l-2.597,2.588l-2.595-2.588l0.926-0.995l-1.853-2.191
			l2.966-3.186c-1.669-1.792-4.265-1.792-5.933,0l-4.82,5.377l2.039,2.19H2.082l-0.927,0.996L6.16,16.21l0.927-1.195v-4.182
			l2.041,2.19l0.927-0.996l2.411,2.588L2.082,25.769l2.966,3.186l15.761-16.926C21.365,11.83,21.922,12.028,22.477,12.028z"/>
	</g>
</g>
</svg>
